{"title":"Alien Quadrilogy (PSP + Ipod touch + Zune)","uid":5689727,"size":1896655235,"categoryP":"video","categoryS":"handheld","magnet":"?xt=urn:btih:5ed4aa029226c995818988c0f6f52f5261c258c4&amp;dn=Alien+Quadrilogy+%28PSP+%2B+Ipod+touch+%2B+Zune%29&amp;tr=udp%3A%2F%2Ftracker.openbittorrent.com%3A80&amp;tr=udp%3A%2F%2Fopen.demonii.com%3A1337&amp;tr=udp%3A%2F%2Ftracker.coppersurfer.tk%3A6969&amp;tr=udp%3A%2F%2Fexodus.desync.com%3A6969","seeders":0,"leechers":1,"uploader":"on.off.on","files":4,"time":1279046291,"description":"Alien Quadrilogy\n &lt;a href=&quot;\nhttp://www.imdb.com/title/tt0078748/&quot; rel=&quot;nofollow&quot; target=&quot;_NEW&quot;&gt;\nhttp://www.imdb.com/title/tt0078748/&lt;/a&gt;\n &lt;a href=&quot;\nhttp://www.imdb.com/title/tt0090605/&quot; rel=&quot;nofollow&quot; target=&quot;_NEW&quot;&gt;\nhttp://www.imdb.com/title/tt0090605/&lt;/a&gt;\n &lt;a href=&quot;\nhttp://www.imdb.com/title/tt0103644/&quot; rel=&quot;nofollow&quot; target=&quot;_NEW&quot;&gt;\nhttp://www.imdb.com/title/tt0103644/&lt;/a&gt;\n &lt;a href=&quot;\nhttp://www.imdb.com/title/tt0118583/&quot; rel=&quot;nofollow&quot; target=&quot;_NEW&quot;&gt;\nhttp://www.imdb.com/title/tt0118583/&lt;/a&gt;\n\n\n\n\nSource  :\n &lt;a href=&quot;\nhttp://thepiratebay.se/torrent/4674934/Alien.Quadrilogy.720p.x264.HD-BiTs&quot; rel=&quot;nofollow&quot; target=&quot;_NEW&quot;&gt;\nhttp://thepiratebay.se/torrent/4674934/Alien.Quadrilogy.720p.x264.HD-BiTs&lt;/a&gt; \n\nAlien.DirCut.1979.DTheater.720p.x264.DTS-iLL\n\nAliens.PROPER.HDTV.720p.x264.AC3-5.1-DiC\n\nAlien.3.720p.HDTV.XVID-ANON\n\nAlien.Resurrection.720p.HDTV.XVID-ANON\n\n\n\n\n\nInfo on movie Aliens (2):\n\nID                               : 1\nFormat                           : AVC\nFormat/Info                      : Advanced Video Codec\nFormat profile                   : &lt;a class=&quot;__cf_email__&quot; href=&quot;/cdn-cgi/l/email-protection&quot; data-cfemail=&quot;82c0e3f1e7eeebece7c2ceb0acb3&quot;&gt;[email&amp;#160;protected]&lt;/a&gt;&lt;script cf-hash='f9e31' type=&quot;text/javascript&quot;&gt;\n/* &lt;![CDATA[ */!function(){try{var t=&quot;currentScript&quot;in document?document.currentScript:function(){for(var t=document.getElementsByTagName(&quot;script&quot;),e=t.length;e--;)if(t[e].getAttribute(&quot;cf-hash&quot;))return t[e]}();if(t&amp;&amp;t.previousSibling){var e,r,n,i,c=t.previousSibling,a=c.getAttribute(&quot;data-cfemail&quot;);if(a){for(e=&quot;&quot;,r=parseInt(a.substr(0,2),16),n=2;a.length-n;n+=2)i=parseInt(a.substr(n,2),16)^r,e+=String.fromCharCode(i);e=document.createTextNode(e),c.parentNode.replaceChild(e,c)}}}catch(u){}}();/* ]]&gt; */&lt;/script&gt;\nFormat settings, CABAC           : No\nFormat settings, ReFrames        : 3 frames\nCodec ID                         : avc1\nCodec ID/Info                    : Advanced Video Coding\nDuration                         : 2h 17mn\nBit rate mode                    : Variable\nBit rate                         : 400 Kbps\nWidth                            : 480 pixels\nHeight                           : 272 pixels\nDisplay aspect ratio             : 16:9\nFrame rate mode                  : Variable\nFrame rate                       : 23.976 fps\nMinimum frame rate               : 23.810 fps\nMaximum frame rate               : 24.390 fps\nColor space                      : YUV\nChroma subsampling               : 4:2:0\nBit depth                        : 8 bits\nScan type                        : Progressive\nBits/(Pixel*Frame)               : 0.128\nStream size                      : 392 MiB (75%)\nWriting library                  : x264 core 79\n\nID                               : 2\nFormat                           : AAC\nFormat/Info                      : Advanced Audio Codec\nFormat version                   : Version 4\nFormat profile                   : LC\nFormat settings, SBR             : No\nCodec ID                         : 40\nDuration                         : 2h 17mn\nBit rate mode                    : Variable\nBit rate                         : 128 Kbps\nMaximum bit rate                 : 161 Kbps\nChannel(s)                       : 2 channels\nChannel positions                : Front: L R\nSampling rate                    : 48.0 KHz\nStream size                      : 126 MiB (24%)\nLanguage                         : English\n\n\nScreens:\n &lt;a href=&quot;\nhttp://img191.imageshack.us/img191/4729/alien3ooom4vthumbs20100.jpg&quot; rel=&quot;nofollow&quot; target=&quot;_NEW&quot;&gt;\nhttp://img191.imageshack.us/img191/4729/alien3ooom4vthumbs20100.jpg&lt;/a&gt;\n &lt;a href=&quot;\nhttp://img807.imageshack.us/img807/5351/aliendircutooom4vthumbs.jpg&quot; rel=&quot;nofollow&quot; target=&quot;_NEW&quot;&gt;\nhttp://img807.imageshack.us/img807/5351/aliendircutooom4vthumbs.jpg&lt;/a&gt;\n &lt;a href=&quot;\nhttp://img17.imageshack.us/img17/2531/alienresurrectionooom4v.jpg&quot; rel=&quot;nofollow&quot; target=&quot;_NEW&quot;&gt;\nhttp://img17.imageshack.us/img17/2531/alienresurrectionooom4v.jpg&lt;/a&gt;\n &lt;a href=&quot;\nhttp://img295.imageshack.us/img295/3037/aliensooom4vthumbs20100.jpg&quot; rel=&quot;nofollow&quot; target=&quot;_NEW&quot;&gt;\nhttp://img295.imageshack.us/img295/3037/aliensooom4vthumbs20100.jpg&lt;/a&gt;\n\n\n\n\n\nPLEASE LET THE TORRENT SEED AND SHARE IT WITH ALL YOU KNOW!\n\nLet me know what I can do to be your trusted source of Handheld videos.\n &lt;a href=&quot;\nhttp://thepiratebay.se/user/on.off.on/&quot; rel=&quot;nofollow&quot; target=&quot;_NEW&quot;&gt;\nhttp://thepiratebay.se/user/on.off.on/&lt;/a&gt; -OOO","torrent":{"xt":"urn:btih:5ed4aa029226c995818988c0f6f52f5261c258c4","amp;dn":"Alien+Quadrilogy+%28PSP+%2B+Ipod+touch+%2B+Zune%29","amp;tr":["udp%3A%2F%2Ftracker.openbittorrent.com%3A80","udp%3A%2F%2Fopen.demonii.com%3A1337","udp%3A%2F%2Ftracker.coppersurfer.tk%3A6969","udp%3A%2F%2Fexodus.desync.com%3A6969"],"infoHash":"5ed4aa029226c995818988c0f6f52f5261c258c4","infoHashBuffer":{"type":"Buffer","data":[94,212,170,2,146,38,201,149,129,137,136,192,246,245,47,82,97,194,88,196]},"announce":[],"urlList":[]}}